<svg width="20" height="15" viewBox="0 0 20 15" fill="none" xmlns="http://www.w3.org/2000/svg">
<path d="M10.875 1.5V9.75C10.8762 10.9431 11.3507 12.087 12.1944 12.9306C13.038 13.7743 14.1819 14.2488 15.375 14.25C15.5739 14.25 15.7647 14.171 15.9053 14.0303C16.046 13.8897 16.125 13.6989 16.125 13.5C16.125 13.3011 16.046 13.1103 15.9053 12.9697C15.7647 12.829 15.5739 12.75 15.375 12.75C14.5794 12.75 13.8163 12.4339 13.2537 11.8713C12.6911 11.3087 12.375 10.5456 12.375 9.75V9H18C18.3978 9 18.7794 8.84196 19.0607 8.56066C19.342 8.27936 19.5 7.89782 19.5 7.5V1.5C19.5 1.10218 19.342 0.720644 19.0607 0.43934C18.7794 0.158035 18.3978 0 18 0H12.375C11.9772 0 11.5956 0.158035 11.3143 0.43934C11.033 0.720644 10.875 1.10218 10.875 1.5ZM1.5 0H7.125C7.52282 0 7.90436 0.158035 8.18566 0.43934C8.46696 0.720644 8.625 1.10218 8.625 1.5V7.5C8.625 7.89782 8.46696 8.27936 8.18566 8.56066C7.90436 8.84196 7.52282 9 7.125 9H1.5V9.75C1.5 10.5456 1.81607 11.3087 2.37868 11.8713C2.94129 12.4339 3.70435 12.75 4.5 12.75C4.69891 12.75 4.88968 12.829 5.03033 12.9697C5.17098 13.1103 5.25 13.3011 5.25 13.5C5.25 13.6989 5.17098 13.8897 5.03033 14.0303C4.88968 14.171 4.69891 14.25 4.5 14.25C3.30691 14.2488 2.16303 13.7743 1.31939 12.9306C0.475744 12.087 0.00124168 10.9431 0 9.75V1.5C0 1.10218 0.158035 0.720644 0.439341 0.43934C0.720644 0.158035 1.10217 0 1.5 0Z" fill="#733635"/>
</svg>
